<mxfile host="app.diagrams.net" modified="2022-11-13T15:45:27.249Z" agent="5.0 (Macintosh; Intel Mac OS X 10_15_7) AppleWebKit/537.36 (KHTML, like Gecko) Chrome/105.0.0.0 Safari/537.36" etag="OTbeH-c8UQAen_rK1IRQ" version="20.3.3" type="github">
  <diagram id="rlVDZUOdfW0rIVFytqxF" name="Страница 1">
    <mxGraphModel dx="1018" dy="535" grid="1" gridSize="10" guides="1" tooltips="1" connect="1" arrows="1" fold="1" page="1" pageScale="1" pageWidth="827" pageHeight="1169" math="0" shadow="0">
      <root>
        <mxCell id="0" />
        <mxCell id="1" parent="0" />
        <mxCell id="je5K-4iImiJq56VAIiYJ-3" style="edgeStyle=orthogonalEdgeStyle;rounded=0;orthogonalLoop=1;jettySize=auto;html=1;exitX=0;exitY=0.5;exitDx=0;exitDy=0;" edge="1" parent="1" source="je5K-4iImiJq56VAIiYJ-1" target="je5K-4iImiJq56VAIiYJ-2">
          <mxGeometry relative="1" as="geometry" />
        </mxCell>
        <mxCell id="je5K-4iImiJq56VAIiYJ-5" style="edgeStyle=orthogonalEdgeStyle;rounded=0;orthogonalLoop=1;jettySize=auto;html=1;exitX=1;exitY=0.5;exitDx=0;exitDy=0;entryX=0;entryY=0.5;entryDx=0;entryDy=0;entryPerimeter=0;" edge="1" parent="1" source="je5K-4iImiJq56VAIiYJ-1" target="je5K-4iImiJq56VAIiYJ-4">
          <mxGeometry relative="1" as="geometry" />
        </mxCell>
        <mxCell id="je5K-4iImiJq56VAIiYJ-1" value="Microservice 1" style="shape=hexagon;perimeter=hexagonPerimeter2;whiteSpace=wrap;html=1;fixedSize=1;" vertex="1" parent="1">
          <mxGeometry x="350" y="240" width="120" height="80" as="geometry" />
        </mxCell>
        <mxCell id="je5K-4iImiJq56VAIiYJ-2" value="topic" style="strokeWidth=2;html=1;shape=mxgraph.flowchart.direct_data;whiteSpace=wrap;" vertex="1" parent="1">
          <mxGeometry x="180" y="250" width="100" height="60" as="geometry" />
        </mxCell>
        <mxCell id="je5K-4iImiJq56VAIiYJ-4" value="topic" style="strokeWidth=2;html=1;shape=mxgraph.flowchart.direct_data;whiteSpace=wrap;" vertex="1" parent="1">
          <mxGeometry x="550" y="250" width="100" height="60" as="geometry" />
        </mxCell>
        <mxCell id="je5K-4iImiJq56VAIiYJ-6" value="consume" style="text;html=1;strokeColor=none;fillColor=none;align=center;verticalAlign=middle;whiteSpace=wrap;rounded=0;" vertex="1" parent="1">
          <mxGeometry x="290" y="260" width="60" height="30" as="geometry" />
        </mxCell>
        <mxCell id="je5K-4iImiJq56VAIiYJ-7" value="produce" style="text;html=1;strokeColor=none;fillColor=none;align=center;verticalAlign=middle;whiteSpace=wrap;rounded=0;" vertex="1" parent="1">
          <mxGeometry x="470" y="260" width="60" height="30" as="geometry" />
        </mxCell>
        <mxCell id="je5K-4iImiJq56VAIiYJ-8" value="Microservice 2" style="shape=hexagon;perimeter=hexagonPerimeter2;whiteSpace=wrap;html=1;fixedSize=1;" vertex="1" parent="1">
          <mxGeometry x="340" y="120" width="120" height="80" as="geometry" />
        </mxCell>
        <mxCell id="je5K-4iImiJq56VAIiYJ-10" value="&lt;div style=&quot;text-align: center;&quot;&gt;&lt;span style=&quot;background-color: initial;&quot;&gt;rest&lt;/span&gt;&lt;/div&gt;" style="text;whiteSpace=wrap;html=1;" vertex="1" parent="1">
          <mxGeometry x="400" y="210" width="80" height="40" as="geometry" />
        </mxCell>
        <mxCell id="je5K-4iImiJq56VAIiYJ-11" value="" style="endArrow=classic;html=1;rounded=0;exitX=0.375;exitY=0;exitDx=0;exitDy=0;entryX=0.5;entryY=1;entryDx=0;entryDy=0;" edge="1" parent="1" source="je5K-4iImiJq56VAIiYJ-1" target="je5K-4iImiJq56VAIiYJ-8">
          <mxGeometry width="50" height="50" relative="1" as="geometry">
            <mxPoint x="390" y="300" as="sourcePoint" />
            <mxPoint x="440" y="250" as="targetPoint" />
          </mxGeometry>
        </mxCell>
      </root>
    </mxGraphModel>
  </diagram>
</mxfile>
